<?xml version="1.0" encoding="UTF-8"?>
<svg xmlns="http://www.w3.org/2000/svg" xmlns:xlink="http://www.w3.org/1999/xlink" width="620px" height="620px" viewBox="0 0 620 620" version="1.1">
<g id="surface1">
<path style=" stroke:none;fill-rule:nonzero;fill:rgb(255,255,255);fill-opacity:1;" d="M 193.179688 107.039062 C 192.855469 110 192.46875 112.960938 192.238281 115.925781 C 192.15625 117.003906 192.527344 118.109375 192.558594 119.203125 C 192.613281 121.3125 192.480469 123.425781 192.597656 125.527344 C 192.734375 128.035156 193.03125 130.535156 193.285156 133.035156 C 193.484375 135.050781 193.621094 137.070312 193.957031 139.0625 C 194.574219 142.726562 194.957031 146.425781 195.988281 150.027344 C 196.859375 153.070312 197.433594 156.191406 198.144531 159.277344 C 198.363281 160.226562 198.542969 161.1875 198.832031 162.117188 C 200.160156 166.359375 201.570312 170.574219 202.851562 174.828125 C 204.15625 179.160156 205.785156 183.367188 207.511719 187.542969 C 208.996094 191.140625 210.265625 194.820312 211.765625 198.410156 C 213.007812 201.375 214.421875 204.269531 215.800781 207.179688 C 217.703125 211.1875 219.589844 215.203125 221.574219 219.171875 C 223.652344 223.335938 225.824219 227.453125 227.980469 231.578125 C 230.464844 236.332031 233.03125 241.039062 235.457031 245.820312 C 237.414062 249.664062 239.082031 253.664062 241.125 257.460938 C 243.5625 262 246.28125 266.386719 248.847656 270.859375 C 251.292969 275.117188 253.6875 279.398438 256.121094 283.660156 C 258.011719 286.957031 259.921875 290.246094 261.828125 293.535156 C 264.289062 297.777344 266.746094 302.027344 269.226562 306.261719 C 272.199219 311.335938 275.210938 316.382812 278.171875 321.46875 C 279.492188 323.742188 280.726562 326.070312 282.101562 328.558594 C 281.121094 330.347656 280.097656 332.273438 279.019531 334.164062 C 278.414062 335.226562 277.664062 336.207031 277.0625 337.273438 C 276.078125 339.015625 275.210938 340.820312 274.203125 342.550781 C 272.796875 344.976562 271.273438 347.332031 269.859375 349.753906 C 268.726562 351.695312 267.824219 353.792969 266.554688 355.640625 C 264.867188 358.101562 263.480469 360.734375 261.941406 363.273438 C 259.320312 367.59375 256.824219 371.992188 254.269531 376.351562 C 251.71875 380.699219 249.125 385.019531 246.621094 389.390625 C 244.320312 393.398438 242.152344 397.480469 239.855469 401.488281 C 238.828125 403.285156 237.554688 404.945312 236.511719 406.730469 C 235.070312 409.195312 233.761719 411.738281 232.359375 414.226562 C 231.367188 415.976562 230.351562 417.714844 229.277344 419.410156 C 226.808594 423.332031 224.324219 427.238281 221.789062 431.117188 C 220.214844 433.53125 218.578125 435.902344 216.90625 438.246094 C 215.097656 440.789062 213.253906 443.304688 211.367188 445.789062 C 209.074219 448.800781 206.738281 451.777344 204.390625 454.75 C 202.066406 457.695312 199.648438 460.554688 197.023438 463.253906 C 194.320312 466.03125 191.859375 469.050781 189.128906 471.800781 C 186.730469 474.210938 184.097656 476.382812 181.578125 478.675781 C 180.054688 480.066406 178.648438 481.609375 177.015625 482.855469 C 174.757812 484.574219 172.347656 486.089844 169.992188 487.679688 C 168.691406 488.554688 167.386719 489.425781 166.066406 490.269531 C 162.800781 492.351562 159.242188 493.785156 155.691406 495.292969 C 152.902344 496.476562 150.003906 497.066406 147.121094 497.753906 C 145.640625 498.109375 144.121094 498.386719 142.527344 498.292969 C 141.195312 498.210938 139.855469 498.667969 138.464844 498.652344 C 135.910156 498.621094 133.429688 498.238281 130.960938 497.632812 C 129.898438 497.367188 128.835938 497.09375 127.757812 496.910156 C 122.21875 495.976562 118.261719 492.703125 115.070312 488.324219 C 111.898438 483.972656 108.75 479.617188 106.070312 474.921875 C 104.203125 471.640625 101.859375 468.640625 99.828125 465.449219 C 97.703125 462.101562 95.683594 458.679688 93.648438 455.269531 C 92.210938 452.867188 90.707031 450.488281 89.441406 447.996094 C 86.957031 443.121094 84.507812 438.222656 82.257812 433.238281 C 79.945312 428.128906 77.75 422.960938 75.753906 417.71875 C 74.074219 413.328125 72.664062 408.828125 71.304688 404.324219 C 70.007812 400.042969 68.921875 395.699219 67.761719 391.375 C 67.109375 388.960938 66.421875 386.554688 65.875 384.117188 C 65.222656 381.195312 64.683594 378.246094 64.113281 375.304688 C 63.726562 373.300781 63.328125 371.300781 63.003906 369.289062 C 62.738281 367.621094 62.585938 365.9375 62.371094 364.257812 C 62.015625 361.484375 61.59375 358.722656 61.300781 355.941406 C 61.078125 353.839844 61.042969 351.710938 60.867188 349.597656 C 60.664062 347.15625 60.390625 344.71875 60.164062 342.28125 C 60.125 341.851562 60.136719 341.414062 60.136719 340.980469 C 60.136719 337.816406 60.242188 334.652344 60.105469 331.496094 C 60 329.171875 60.210938 326.867188 60.152344 324.546875 C 60.09375 322.253906 60.046875 319.953125 60.164062 317.664062 C 60.296875 315.039062 60.632812 312.414062 60.835938 309.789062 C 60.976562 307.976562 61 306.15625 61.144531 304.34375 C 61.257812 302.882812 61.449219 301.425781 61.644531 299.972656 C 61.941406 297.734375 62.382812 295.515625 62.570312 293.269531 C 62.863281 289.847656 63.488281 286.480469 64.148438 283.125 C 65.074219 278.425781 66.09375 273.738281 67.21875 269.082031 C 68.191406 265.066406 69.269531 261.070312 70.480469 257.121094 C 72.121094 251.757812 73.746094 246.375 75.722656 241.128906 C 77.804688 235.601562 80.199219 230.191406 82.632812 224.800781 C 84.753906 220.09375 86.996094 215.433594 89.402344 210.863281 C 91.53125 206.820312 94.046875 202.988281 96.226562 198.972656 C 98.804688 194.222656 102.011719 189.882812 104.972656 185.390625 C 107.878906 180.992188 111.285156 176.925781 114.488281 172.726562 C 115.664062 171.179688 116.871094 169.65625 118.105469 168.152344 C 119.410156 166.566406 120.753906 165.007812 122.097656 163.453125 C 123.824219 161.453125 125.523438 159.433594 127.320312 157.496094 C 128.910156 155.785156 130.621094 154.1875 132.273438 152.53125 C 134.507812 150.296875 136.65625 147.96875 138.988281 145.839844 C 142.761719 142.402344 146.664062 139.117188 150.488281 135.738281 C 155.191406 131.585938 160.203125 127.84375 165.289062 124.195312 C 170.621094 120.371094 176.035156 116.675781 181.746094 113.425781 C 185.425781 111.335938 189.058594 109.167969 192.714844 107.046875 C 192.800781 106.996094 192.945312 107.039062 193.179688 107.039062 "/>
<path style=" stroke:none;fill-rule:nonzero;fill:rgb(255,255,255);fill-opacity:1;" d="M 343.117188 328.695312 C 344.8125 325.78125 346.429688 322.992188 348.050781 320.210938 C 348.570312 319.316406 349.121094 318.433594 349.648438 317.539062 C 352.417969 312.820312 355.214844 308.121094 357.945312 303.386719 C 360.246094 299.390625 362.429688 295.328125 364.726562 291.328125 C 366.152344 288.84375 367.710938 286.433594 369.164062 283.96875 C 370.296875 282.035156 371.253906 279.988281 372.492188 278.128906 C 374.117188 275.683594 375.503906 273.097656 377.007812 270.582031 C 379.59375 266.253906 382.148438 261.90625 384.664062 257.539062 C 386.511719 254.332031 388.234375 251.050781 390.078125 247.84375 C 391.535156 245.3125 393.132812 242.855469 394.605469 240.332031 C 396.53125 237.027344 398.359375 233.664062 400.296875 230.363281 C 401.863281 227.691406 403.546875 225.082031 405.15625 222.433594 C 405.539062 221.800781 405.804688 221.097656 406.183594 220.460938 C 407.9375 217.480469 409.742188 214.53125 411.476562 211.542969 C 412.480469 209.808594 413.351562 208 414.351562 206.269531 C 415.789062 203.792969 417.308594 201.367188 418.753906 198.898438 C 419.855469 197.015625 420.890625 195.089844 421.984375 193.195312 C 422.894531 191.621094 423.871094 190.082031 424.777344 188.507812 C 426.378906 185.710938 427.914062 182.875 429.539062 180.09375 C 430.984375 177.625 432.546875 175.230469 433.992188 172.765625 C 435.902344 169.511719 437.746094 166.21875 439.632812 162.957031 C 440.09375 162.160156 440.667969 161.429688 441.117188 160.628906 C 442.828125 157.601562 444.457031 154.519531 446.214844 151.515625 C 448.550781 147.527344 451.007812 143.605469 453.363281 139.628906 C 454.378906 137.90625 455.214844 136.082031 456.234375 134.367188 C 457.921875 131.542969 459.691406 128.765625 461.542969 125.78125 C 464.171875 127.800781 466.796875 129.761719 469.367188 131.789062 C 472.003906 133.875 474.597656 136.015625 477.1875 138.152344 C 478.277344 139.050781 479.355469 139.964844 480.371094 140.941406 C 484.070312 144.484375 487.746094 148.050781 491.414062 151.621094 C 493.21875 153.378906 495.039062 155.121094 496.753906 156.960938 C 498.714844 159.070312 500.613281 161.238281 502.453125 163.453125 C 506.285156 168.046875 510.175781 172.605469 513.832031 177.339844 C 517.480469 182.0625 520.777344 187.046875 523.96875 192.097656 C 525.929688 195.199219 528.011719 198.234375 529.898438 201.382812 C 531.375 203.839844 532.53125 206.488281 534.015625 208.945312 C 536.625 213.265625 538.675781 217.859375 540.878906 222.378906 C 542.558594 225.839844 543.839844 229.492188 545.457031 232.980469 C 548.578125 239.703125 550.726562 246.78125 553.171875 253.75 C 554.109375 256.429688 554.789062 259.199219 555.53125 261.945312 C 556.375 265.050781 557.253906 268.152344 557.941406 271.292969 C 558.835938 275.347656 559.5625 279.445312 560.355469 283.523438 C 560.722656 285.410156 561.125 287.292969 561.425781 289.191406 C 561.742188 291.152344 561.96875 293.128906 562.210938 295.097656 C 562.367188 296.359375 562.464844 297.625 562.621094 298.882812 C 562.984375 301.90625 563.429688 304.917969 563.726562 307.945312 C 563.925781 309.992188 563.792969 312.074219 564.042969 314.109375 C 564.601562 318.734375 564.226562 323.367188 564.414062 327.992188 C 564.507812 330.304688 564.292969 332.605469 564.371094 334.910156 C 564.445312 337.203125 564.480469 339.503906 564.359375 341.789062 C 564.230469 344.226562 563.847656 346.644531 563.664062 349.082031 C 563.53125 350.832031 563.605469 352.605469 563.46875 354.355469 C 563.347656 355.996094 563.074219 357.625 562.859375 359.257812 C 562.648438 360.859375 562.433594 362.457031 562.214844 364.054688 C 561.976562 365.777344 561.757812 367.5 561.480469 369.21875 C 561.085938 371.710938 560.703125 374.207031 560.210938 376.679688 C 559.671875 379.386719 559.015625 382.074219 558.402344 384.765625 C 557.914062 386.898438 557.445312 389.03125 556.90625 391.152344 C 555.976562 394.800781 555.089844 398.46875 554.011719 402.078125 C 552.894531 405.828125 551.652344 409.546875 550.3125 413.226562 C 548.816406 417.335938 547.203125 421.410156 545.554688 425.460938 C 544.058594 429.136719 542.507812 432.796875 540.863281 436.414062 C 539.539062 439.324219 538.054688 442.164062 536.609375 445.027344 C 534.878906 448.453125 533.066406 451.835938 531.039062 455.105469 C 529.207031 458.0625 527.582031 461.148438 525.742188 464.105469 C 524.191406 466.601562 522.4375 468.972656 520.828125 471.433594 C 518.089844 475.617188 515.167969 479.664062 512.0625 483.582031 C 509.351562 487.003906 506.683594 490.464844 503.910156 493.839844 C 502.558594 495.488281 501.039062 497 499.554688 498.53125 C 494.964844 503.269531 490.398438 508.027344 485.738281 512.691406 C 483.695312 514.730469 481.433594 516.539062 479.28125 518.472656 C 477.910156 519.703125 476.578125 520.980469 475.203125 522.207031 C 474.605469 522.738281 473.9375 523.175781 473.3125 523.675781 C 469.808594 526.464844 466.316406 529.265625 462.808594 532.046875 C 462.394531 532.375 461.910156 532.617188 461.324219 532.988281 C 421.898438 464.847656 382.507812 396.765625 343.117188 328.695312 "/>
<path style=" stroke:none;fill-rule:nonzero;fill:rgb(255,255,255);fill-opacity:1;" d="M 312.523438 381.117188 C 330.464844 412.0625 348.332031 442.632812 365.953125 473.34375 C 383.519531 503.960938 401.59375 534.292969 418.871094 565.417969 C 418.15625 565.488281 417.765625 565.542969 417.371094 565.558594 C 416.875 565.578125 416.378906 565.5625 415.882812 565.5625 C 309.683594 565.5625 203.484375 565.558594 97.285156 565.582031 C 93.394531 565.585938 89.570312 565.136719 85.789062 564.371094 C 82.6875 563.742188 79.59375 562.945312 76.601562 561.914062 C 73.296875 560.773438 70.015625 559.472656 66.90625 557.890625 C 62.824219 555.808594 59.042969 553.210938 55.355469 550.457031 C 52.015625 547.960938 49.066406 545.074219 46.28125 542.042969 C 42.296875 537.710938 38.925781 532.914062 36.105469 527.707031 C 33.457031 522.824219 31.417969 517.714844 29.980469 512.386719 C 29 508.75 28.242188 505.046875 27.875 501.253906 C 27.667969 499.097656 27.605469 496.957031 27.601562 494.808594 C 27.578125 477.574219 27.589844 460.339844 27.589844 443.101562 L 27.589844 440.128906 C 27.65625 440.105469 27.726562 440.082031 27.796875 440.058594 C 28.34375 441.257812 28.96875 442.429688 29.421875 443.664062 C 31.007812 447.957031 32.875 452.125 34.828125 456.261719 C 36.710938 460.265625 38.621094 464.261719 40.625 468.207031 C 42.289062 471.484375 44.09375 474.683594 45.855469 477.910156 C 46.855469 479.738281 47.933594 481.527344 48.90625 483.378906 C 49.417969 484.355469 49.675781 485.464844 50.21875 486.417969 C 51.253906 488.238281 52.425781 489.972656 53.507812 491.765625 C 54.976562 494.203125 56.382812 496.679688 57.875 499.105469 C 58.582031 500.257812 59.347656 501.386719 60.21875 502.417969 C 62.546875 505.1875 64.925781 507.910156 67.316406 510.621094 C 68.746094 512.242188 70.1875 513.855469 71.710938 515.386719 C 73.191406 516.875 74.605469 518.542969 76.363281 519.613281 C 78.753906 521.0625 80.546875 523.15625 82.71875 524.824219 C 85.316406 526.816406 87.835938 528.898438 90.570312 530.710938 C 93.328125 532.535156 95.886719 534.6875 98.753906 536.296875 C 102.585938 538.441406 106.667969 540.125 110.574219 542.144531 C 113.871094 543.847656 117.496094 544.613281 120.917969 545.960938 C 123.136719 546.832031 125.632812 547.015625 128.015625 547.453125 C 130.042969 547.824219 132.078125 548.15625 134.117188 548.425781 C 135.199219 548.570312 136.300781 548.5625 137.390625 548.570312 C 141.109375 548.585938 144.835938 548.691406 148.546875 548.535156 C 150.71875 548.441406 152.875 547.9375 155.03125 547.578125 C 156.460938 547.335938 157.886719 547.054688 159.304688 546.746094 C 161.921875 546.167969 164.566406 545.691406 167.128906 544.921875 C 169.351562 544.253906 171.488281 543.273438 173.644531 542.371094 C 175.890625 541.441406 178.152344 540.53125 180.328125 539.453125 C 182.65625 538.285156 184.890625 536.929688 187.171875 535.660156 C 188.972656 534.65625 190.824219 533.734375 192.566406 532.640625 C 194.113281 531.671875 195.503906 530.453125 197.027344 529.449219 C 200.710938 527.007812 204.261719 524.382812 207.710938 521.621094 C 209.402344 520.265625 211.035156 518.835938 212.671875 517.410156 C 215.4375 514.992188 218.273438 512.644531 220.921875 510.101562 C 223.863281 507.277344 226.667969 504.304688 229.464844 501.335938 C 231.875 498.78125 234.242188 496.1875 236.535156 493.53125 C 239.019531 490.664062 241.339844 487.652344 243.828125 484.789062 C 247.519531 480.535156 250.964844 476.105469 254.246094 471.527344 C 257.457031 467.046875 260.851562 462.695312 264.105469 458.246094 C 265.625 456.167969 266.9375 453.9375 268.460938 451.859375 C 270.910156 448.53125 273.453125 445.269531 275.960938 441.980469 C 276.671875 441.046875 277.410156 440.128906 278.109375 439.1875 C 279.238281 437.660156 280.460938 436.1875 281.433594 434.566406 C 283.019531 431.917969 284.371094 429.121094 285.9375 426.460938 C 288.320312 422.421875 290.835938 418.457031 293.234375 414.425781 C 294.257812 412.707031 295.074219 410.875 296.074219 409.144531 C 297.476562 406.714844 298.96875 404.335938 300.410156 401.925781 C 302.308594 398.746094 304.203125 395.566406 306.074219 392.375 C 307.652344 389.6875 309.195312 386.988281 310.746094 384.289062 C 311.304688 383.316406 311.84375 382.328125 312.523438 381.117188 "/>
<path style=" stroke:none;fill-rule:nonzero;fill:rgb(255,255,255);fill-opacity:1;" d="M 312.710938 276.207031 C 310.511719 272.355469 308.617188 268.984375 306.667969 265.644531 C 305.128906 263 303.492188 260.40625 301.953125 257.753906 C 300.445312 255.160156 299.027344 252.515625 297.535156 249.914062 C 295.910156 247.101562 294.226562 244.320312 292.597656 241.511719 C 291.15625 239.023438 289.765625 236.507812 288.332031 234.011719 C 286.339844 230.554688 284.335938 227.101562 282.332031 223.648438 C 280.765625 220.941406 279.199219 218.230469 277.621094 215.53125 C 275.953125 212.675781 274.242188 209.847656 272.59375 206.980469 C 271.214844 204.585938 269.925781 202.136719 268.542969 199.742188 C 266.828125 196.769531 264.980469 193.863281 263.332031 190.855469 C 262.042969 188.496094 260.972656 186.015625 259.804688 183.585938 C 259.433594 182.8125 259.054688 182.042969 258.714844 181.257812 C 257.160156 177.660156 255.558594 174.085938 254.101562 170.453125 C 252.441406 166.320312 250.761719 162.183594 249.371094 157.957031 C 248.0625 153.972656 247.117188 149.867188 246.011719 145.816406 C 245.816406 145.113281 245.53125 144.421875 245.398438 143.703125 C 244.753906 140.222656 244.117188 136.738281 243.53125 133.25 C 242.832031 129.054688 242.363281 124.832031 242.558594 120.574219 C 242.664062 118.367188 243.125 116.171875 243.105469 113.96875 C 243.066406 109.867188 244.570312 106.164062 245.757812 102.367188 C 247.089844 98.101562 249.285156 94.355469 252.328125 91.085938 C 253.109375 90.246094 253.804688 89.320312 254.570312 88.460938 C 256.546875 86.230469 258.96875 84.53125 261.359375 82.808594 C 262.679688 81.859375 264.230469 81.5 265.808594 81.234375 C 269.414062 80.625 273 79.941406 276.613281 79.398438 C 279.027344 79.039062 281.472656 78.84375 283.90625 78.625 C 286.539062 78.382812 289.183594 78.292969 291.804688 77.976562 C 297.699219 77.257812 303.613281 77.210938 309.535156 77.238281 C 310.140625 77.242188 310.746094 77.089844 311.351562 77.015625 C 311.71875 76.96875 312.105469 76.828125 312.445312 76.898438 C 316.066406 77.613281 319.726562 77.050781 323.355469 77.265625 C 326.355469 77.441406 329.347656 77.75 332.34375 77.976562 C 333.820312 78.085938 335.304688 78.109375 336.78125 78.246094 C 340.429688 78.597656 344.101562 78.820312 347.71875 79.402344 C 353.480469 80.332031 359.214844 81.488281 364.949219 82.59375 C 371.765625 83.910156 378.449219 85.75 385.097656 87.742188 C 391.449219 89.640625 397.71875 91.726562 403.882812 94.164062 C 407.34375 95.53125 410.792969 96.949219 414.238281 98.359375 C 414.746094 98.566406 415.214844 98.875 415.867188 99.226562 C 398.679688 128.753906 381.574219 158.25 364.359375 187.679688 C 347.175781 217.058594 330.101562 246.503906 312.710938 276.207031 "/>
<path style=" stroke:none;fill-rule:nonzero;fill:rgb(255,255,255);fill-opacity:1;" d="M 397.46875 35.957031 L 399.457031 35.957031 C 444.089844 35.957031 488.71875 35.96875 533.351562 35.9375 C 537.121094 35.9375 540.828125 36.417969 544.484375 37.175781 C 547.882812 37.882812 551.253906 38.824219 554.539062 39.953125 C 558.171875 41.207031 561.691406 42.726562 565.09375 44.613281 C 568.964844 46.761719 572.621094 49.199219 576.066406 51.917969 C 579.597656 54.703125 582.730469 57.941406 585.679688 61.371094 C 588.242188 64.355469 590.511719 67.535156 592.554688 70.867188 C 596.199219 76.808594 598.933594 83.160156 600.53125 89.96875 C 601.171875 92.691406 601.824219 95.414062 602.332031 98.160156 C 602.621094 99.71875 602.746094 101.332031 602.746094 102.921875 C 602.769531 146.1875 602.765625 189.453125 602.765625 232.71875 L 602.765625 234.761719 C 586.679688 187.054688 560.765625 145.542969 524.667969 110.480469 C 488.40625 75.25 445.910156 50.613281 397.46875 35.957031 "/>
<path style=" stroke:none;fill-rule:nonzero;fill:rgb(255,255,255);fill-opacity:1;" d="M 27.589844 218.519531 L 27.589844 215.601562 C 27.589844 178.40625 27.589844 141.214844 27.585938 104.023438 C 27.585938 100.703125 28.140625 97.4375 28.785156 94.207031 C 29.476562 90.75 30.410156 87.347656 31.574219 83.996094 C 33.871094 77.386719 37.160156 71.316406 41.191406 65.652344 C 44.269531 61.328125 47.945312 57.492188 51.863281 53.929688 C 54.726562 51.335938 57.9375 49.171875 61.171875 47.042969 C 65.125 44.433594 69.363281 42.453125 73.722656 40.652344 C 78.21875 38.796875 82.929688 37.734375 87.660156 36.808594 C 90.414062 36.273438 93.261719 35.996094 96.070312 35.992188 C 139.027344 35.945312 181.984375 35.957031 224.945312 35.957031 L 226.921875 35.957031 C 226.957031 36.078125 226.992188 36.195312 227.03125 36.3125 C 181.453125 49.699219 141.101562 72.421875 106.171875 104.492188 C 71.367188 136.445312 45.253906 174.503906 27.589844 218.519531 "/>
<path style=" stroke:none;fill-rule:nonzero;fill:rgb(255,255,255);fill-opacity:1;" d="M 602.765625 423.875 L 602.765625 426.472656 C 602.765625 449.347656 602.738281 472.226562 602.789062 495.101562 C 602.800781 499.171875 602.453125 503.195312 601.601562 507.148438 C 600.855469 510.601562 599.945312 514.042969 598.800781 517.382812 C 596.773438 523.257812 593.988281 528.757812 590.460938 533.921875 C 587.066406 538.894531 583.160156 543.390625 578.714844 547.386719 C 574.714844 550.984375 570.273438 554.007812 565.582031 556.703125 C 561.933594 558.800781 558.066406 560.324219 554.175781 561.789062 C 550.109375 563.316406 545.84375 564.113281 541.558594 564.855469 C 538.144531 565.449219 534.726562 565.582031 531.28125 565.570312 C 523.347656 565.546875 515.410156 565.566406 507.472656 565.566406 L 505.394531 565.566406 C 551.316406 527.289062 583.746094 480.261719 602.765625 423.875 "/>
</g>
</svg>
